<svg width="36" height="36" viewBox="0 0 36 36" fill="none" xmlns="http://www.w3.org/2000/svg">
<path d="M18 36C27.9412 36 36 27.9405 36 18C36 8.0595 27.9412 0 18 0C8.05875 0 0 8.05875 0 18C0 27.9405 8.05875 36 18 36Z" fill="#DEEEFF"/>
<path fill-rule="evenodd" clip-rule="evenodd" d="M12.2857 16.6069C11.1964 16.6069 10.1518 17.0396 9.38154 17.8099C8.6113 18.5801 8.17859 19.6248 8.17859 20.7141C8.17859 21.8034 8.6113 22.848 9.38154 23.6183C10.1518 24.3885 11.1964 24.8212 12.2857 24.8212C13.375 24.8212 14.4197 24.3885 15.1899 23.6183C15.9602 22.848 16.3929 21.8034 16.3929 20.7141C16.3929 19.6248 15.9602 18.5801 15.1899 17.8099C14.4197 17.0396 13.375 16.6069 12.2857 16.6069ZM10.6443 19.0726C10.8591 18.8538 11.1152 18.6797 11.3977 18.5604C11.6802 18.4411 11.9835 18.379 12.2901 18.3776C12.5968 18.3762 12.9007 18.4355 13.1843 18.5522C13.4678 18.6689 13.7255 18.8407 13.9423 19.0575C14.1591 19.2743 14.3309 19.532 14.4476 19.8155C14.5643 20.0991 14.6236 20.403 14.6222 20.7097C14.6208 21.0163 14.5587 21.3196 14.4394 21.6021C14.3201 21.8846 14.146 22.1407 13.9272 22.3555C13.4905 22.7842 12.9021 23.0232 12.2901 23.0204C11.6782 23.0176 11.0921 22.7732 10.6593 22.3405C10.2266 21.9077 9.98222 21.3216 9.97941 20.7097C9.9766 20.0977 10.2156 19.5093 10.6443 19.0726ZM23.7143 16.6069C22.625 16.6069 21.5804 17.0396 20.8101 17.8099C20.0399 18.5801 19.6072 19.6248 19.6072 20.7141C19.6072 21.8034 20.0399 22.848 20.8101 23.6183C21.5804 24.3885 22.625 24.8212 23.7143 24.8212C24.8036 24.8212 25.8483 24.3885 26.6185 23.6183C27.3887 22.848 27.8214 21.8034 27.8214 20.7141C27.8214 19.6248 27.3887 18.5801 26.6185 17.8099C25.8483 17.0396 24.8036 16.6069 23.7143 16.6069ZM22.0714 19.0726C22.5068 18.6371 23.0973 18.3924 23.7131 18.3922C24.3289 18.3921 24.9195 18.6366 25.355 19.0719C25.7905 19.5073 26.0353 20.0978 26.0354 20.7136C26.0356 21.3294 25.7911 21.92 25.3557 22.3555C24.919 22.7842 24.3307 23.0232 23.7187 23.0204C23.1067 23.0176 22.5206 22.7732 22.0879 22.3405C21.6552 21.9077 21.4108 21.3216 21.408 20.7097C21.4052 20.0977 21.6427 19.5093 22.0714 19.0726Z" fill="#2859C5"/>
<path fill-rule="evenodd" clip-rule="evenodd" d="M19.4071 10.9228C19.4896 10.8039 19.5995 10.7066 19.7276 10.6392C19.8557 10.5718 19.9981 10.5363 20.1428 10.5356H24.4286C24.6654 10.5356 24.8925 10.6297 25.0599 10.7972C25.2273 10.9646 25.3214 11.1917 25.3214 11.4285C25.3214 11.6653 25.2273 11.8924 25.0599 12.0598C24.8925 12.2273 24.6654 12.3214 24.4286 12.3214H21.4428L24.5471 20.3928C24.6278 20.6127 24.6188 20.8554 24.5221 21.0687C24.4254 21.282 24.2488 21.4488 24.0303 21.5331C23.8118 21.6175 23.569 21.6126 23.3541 21.5195C23.1391 21.4265 22.9694 21.2527 22.8814 21.0356L21.4343 17.2714L18.7014 20.5514C18.6274 20.646 18.5348 20.7245 18.4295 20.7822C18.3241 20.8399 18.2081 20.8756 18.0886 20.8871L12.3971 21.5985C12.2367 21.6187 12.0737 21.595 11.9257 21.5298C11.7776 21.4647 11.6501 21.3605 11.5567 21.2285C11.4632 21.0965 11.4074 20.9415 11.3951 20.7803C11.3829 20.619 11.4147 20.4574 11.4871 20.3128L14.0586 15.1642L13.2086 13.7485H12.2857C12.0489 13.7485 11.8218 13.6544 11.6544 13.487C11.4869 13.3195 11.3928 13.0924 11.3928 12.8556C11.3928 12.6188 11.4869 12.3917 11.6544 12.2243C11.8218 12.0569 12.0489 11.9628 12.2857 11.9628H15.8571C16.0939 11.9628 16.321 12.0569 16.4885 12.2243C16.6559 12.3917 16.75 12.6188 16.75 12.8556C16.75 13.0924 16.6559 13.3195 16.4885 13.487C16.321 13.6544 16.0939 13.7485 15.8571 13.7485H15.2914L15.8343 14.6556L15.8471 14.6742L18.1186 18.4599L20.7 15.3671L19.31 11.7499C19.2586 11.6146 19.2406 11.4689 19.2575 11.3252C19.2744 11.1814 19.3257 11.0425 19.4071 10.9228ZM15.1471 16.9814L13.83 19.6214L16.5286 19.2856L15.1457 16.9828L15.1471 16.9814Z" fill="#8FBFFA"/>
</svg>
