<svg width="36" height="36" viewBox="0 0 36 36" fill="none" xmlns="http://www.w3.org/2000/svg">
<path d="M18 36C27.9412 36 36 27.9405 36 18C36 8.0595 27.9412 0 18 0C8.05875 0 0 8.05875 0 18C0 27.9405 8.05875 36 18 36Z" fill="#DEEEFF"/>
<path fill-rule="evenodd" clip-rule="evenodd" d="M10.5 11C9.83696 11 9.20107 11.2634 8.73223 11.7322C8.26339 12.2011 8 12.837 8 13.5V23.4386C8 24.7071 9.02857 25.7357 10.2971 25.7357H25.9586C26.9443 25.7357 27.7443 24.9357 27.7443 23.95V19.1143C27.7443 18.1286 26.9443 17.3286 25.9586 17.3286H25.6014V13.5C25.6014 12.837 25.338 12.2011 24.8692 11.7322C24.4004 11.2634 23.7645 11 23.1014 11H10.5ZM10.1429 14.8914C10.1429 14.7967 10.1805 14.7059 10.2475 14.6389C10.3144 14.5719 10.4053 14.5343 10.5 14.5343H13.0186V17.3914H10.1443L10.1429 14.8914ZM15.1614 17.3914V14.5343H18.3514V17.3914H15.1614ZM20.4943 17.3914H23.4586V14.8914C23.4586 14.7967 23.4209 14.7059 23.354 14.6389C23.287 14.5719 23.1961 14.5343 23.1014 14.5343H20.4929L20.4943 17.3914Z" fill="#8FBFFA"/>
<path fill-rule="evenodd" clip-rule="evenodd" d="M10.7085 14.0713C10.6137 14.0713 10.5229 14.1089 10.4559 14.1759C10.3889 14.2429 10.3513 14.3337 10.3513 14.4284V16.9284H13.2256V14.0713H10.7085ZM14.4513 24.957C14.4581 25.1977 14.4165 25.4374 14.3291 25.6618C14.2417 25.8862 14.1101 26.0908 13.9422 26.2635C13.7743 26.4361 13.5735 26.5734 13.3517 26.6671C13.1298 26.7609 12.8914 26.8092 12.6506 26.8092C12.4098 26.8092 12.1714 26.7609 11.9495 26.6671C11.7277 26.5734 11.5269 26.4361 11.359 26.2635C11.1911 26.0908 11.0596 25.8862 10.9721 25.6618C10.8847 25.4374 10.8431 25.1977 10.8499 24.957C10.8631 24.4882 11.0586 24.043 11.3949 23.7161C11.7311 23.3892 12.1816 23.2063 12.6506 23.2063C13.1196 23.2063 13.5701 23.3892 13.9063 23.7161C14.2426 24.043 14.4381 24.4882 14.4513 24.957ZM24.6085 24.957C24.6085 25.4348 24.4187 25.893 24.0808 26.2308C23.743 26.5686 23.2848 26.7584 22.807 26.7584C22.3293 26.7584 21.8711 26.5686 21.5332 26.2308C21.1954 25.893 21.0056 25.4348 21.0056 24.957C21.0056 24.4792 21.1954 24.021 21.5332 23.6832C21.8711 23.3454 22.3293 23.1556 22.807 23.1556C23.2848 23.1556 23.743 23.3454 24.0808 23.6832C24.4187 24.021 24.6085 24.4792 24.6085 24.957ZM15.3685 16.9284V14.0713H18.5585V16.9284H15.3685ZM20.7013 16.9284H23.6656V14.4284C23.6656 14.3337 23.628 14.2429 23.561 14.1759C23.494 14.1089 23.4032 14.0713 23.3085 14.0713H20.6999L20.7013 16.9284Z" fill="#2859C5"/>
</svg>
