<svg width="24" height="24" viewBox="0 0 24 24" fill="none" xmlns="http://www.w3.org/2000/svg">
<path opacity="0.5" d="M9.778 21H14.222C17.343 21 18.904 21 20.025 20.265C20.5088 19.9481 20.9254 19.539 21.251 19.061C22 17.961 22 16.428 22 13.364C22 10.3 22 8.76699 21.251 7.66699C20.9254 7.18898 20.5088 6.77984 20.025 6.46299C19.305 5.98999 18.403 5.82099 17.022 5.76099C16.363 5.76099 15.796 5.27099 15.667 4.63599C15.5684 4.17085 15.3123 3.75402 14.9418 3.45594C14.5714 3.15785 14.1095 2.99679 13.634 2.99999H10.366C9.378 2.99999 8.527 3.68499 8.333 4.63599C8.204 5.27099 7.637 5.76099 6.978 5.76099C5.598 5.82099 4.696 5.99099 3.975 6.46299C3.49154 6.77995 3.07527 7.18907 2.75 7.66699C2 8.76699 2 10.299 2 13.364C2 16.429 2 17.96 2.749 19.061C3.073 19.537 3.489 19.946 3.975 20.265C5.096 21 6.657 21 9.778 21Z" fill="#75B5FB"/>
<path d="M17.556 9.27201C17.4475 9.27109 17.34 9.29154 17.2394 9.3322C17.1388 9.37286 17.0472 9.43293 16.9699 9.50898C16.8925 9.58503 16.8309 9.67558 16.7886 9.77544C16.7462 9.87531 16.7239 9.98254 16.723 10.091C16.723 10.543 17.096 10.909 17.556 10.909H18.667C19.127 10.909 19.501 10.542 19.501 10.091C19.5001 9.98245 19.4778 9.87514 19.4354 9.77521C19.393 9.67528 19.3313 9.58469 19.2538 9.50863C19.1763 9.43256 19.0846 9.37251 18.984 9.33191C18.8833 9.29131 18.7756 9.27096 18.667 9.27201H17.556Z" fill="#75B5FB"/>
<path fill-rule="evenodd" clip-rule="evenodd" d="M12 9.27197C9.69998 9.27197 7.83398 11.104 7.83398 13.363C7.83398 15.622 9.69898 17.454 12.001 17.454C14.301 17.454 16.167 15.623 16.167 13.364C16.167 11.105 14.302 9.27197 12.001 9.27197M12.001 10.909C10.621 10.909 9.50098 12.008 9.50098 13.363C9.50098 14.718 10.621 15.818 12.001 15.818C13.382 15.818 14.501 14.719 14.501 13.363C14.501 12.008 13.382 10.909 12.001 10.909Z" fill="#75B5FB"/>
</svg>
