<svg width="30" height="30" viewBox="0 0 30 30" fill="none" xmlns="http://www.w3.org/2000/svg">
<path d="M21 1.5H25.5M27.78 27.621C28.242 27.0585 28.5 26.295 28.5 25.5V7.5C28.5 6.705 28.242 5.94 27.78 5.379C27.3225 4.815 26.6985 4.5 26.0475 4.5H12.576C9.9885 4.5 9.4875 1.9035 7.2405 1.539C6.8445 1.4745 6.4335 1.5 6.033 1.5C4.6035 1.5 3.8895 1.5 3.327 1.7385C2.61147 2.04264 2.04196 2.61268 1.7385 3.3285C1.5 3.888 1.5 4.602 1.5 6.0315V25.5C1.5 26.295 1.758 27.06 2.22 27.621C2.679 28.1835 3.303 28.5 3.954 28.5H26.046C26.697 28.5 27.3195 28.185 27.78 27.621Z" stroke="#EAFDFB" stroke-width="1.5" stroke-linecap="round" stroke-linejoin="round"/>
<path d="M17.25 22.5C18.8413 22.5 20.3674 21.8679 21.4926 20.7426C22.6179 19.6174 23.25 18.0913 23.25 16.5C23.25 14.9087 22.6179 13.3826 21.4926 12.2574C20.3674 11.1321 18.8413 10.5 17.25 10.5C15.6587 10.5 14.1326 11.1321 13.0074 12.2574C11.8821 13.3826 11.25 14.9087 11.25 16.5C11.25 18.0913 11.8821 19.6174 13.0074 20.7426C14.1326 21.8679 15.6587 22.5 17.25 22.5Z" stroke="#EAFDFB" stroke-width="1.5" stroke-linecap="round" stroke-linejoin="round"/>
</svg>
