<svg width="36" height="36" viewBox="0 0 36 36" fill="none" xmlns="http://www.w3.org/2000/svg">
<g clip-path="url(#clip0_612_2620)">
<path d="M18 36C27.9412 36 36 27.9405 36 18C36 8.0595 27.9412 0 18 0C8.05875 0 0 8.05875 0 18C0 27.9405 8.05875 36 18 36Z" fill="#DEEEFF"/>
<path d="M27.9529 18.9855C27.7276 17.6544 26.581 16.556 25.1672 16.556L23.8513 10.5281C23.7697 10.0984 23.5379 9.7104 23.1962 9.43131C22.8545 9.15221 22.4243 8.99963 21.9803 9H13.7165C12.7975 9 12.0126 9.64175 11.8455 10.527C11.7883 10.83 10.9286 16.3331 10.8858 16.5549C9.31041 16.5549 8 17.9023 8 19.4541V21.7971H27.9947C27.9947 19.6078 28.0233 19.3535 27.9529 18.9855ZM12.7601 16.6415C12.9327 15.635 12.7931 16.4586 13.4461 12.5832C13.5201 12.1453 13.7498 11.7476 14.0941 11.4609C14.4385 11.1743 14.875 11.0174 15.326 11.0183H20.6687C21.6021 11.0183 22.3969 11.6785 22.5486 12.5832L23.2346 16.6415H12.7601ZM23.2346 24.6087V26.9517C23.2346 27.469 23.6611 27.8889 24.1866 27.8889H26.0907C26.3432 27.8889 26.5853 27.7901 26.7638 27.6144C26.9424 27.4386 27.0427 27.2003 27.0427 26.9517V24.6087H23.2346ZM8.95312 24.6087V26.9517C8.95312 27.469 9.37967 27.8889 9.90515 27.8889H11.8092C12.0617 27.8889 12.3038 27.7901 12.4824 27.6144C12.6609 27.4386 12.7612 27.2003 12.7612 26.9517V24.6087H8.95312Z" fill="#2E3ECD"/>
<path d="M28 22.7157C28 22.4718 27.9084 22.238 27.7453 22.0655C27.5823 21.8931 27.3611 21.7963 27.1305 21.7963H8.86948C8.63888 21.7963 8.41772 21.8931 8.25466 22.0655C8.0916 22.238 8 22.4718 8 22.7157V23.635C8 24.1436 8.38956 24.5555 8.86948 24.5555H27.1305C27.2448 24.5555 27.3579 24.5317 27.4635 24.4854C27.569 24.4391 27.6649 24.3713 27.7457 24.2858C27.8264 24.2004 27.8905 24.0989 27.9341 23.9872C27.9777 23.8755 28.0001 23.7559 28 23.635V22.7157ZM24.5221 21.3355C24.6963 21.3406 24.8698 21.3087 25.0322 21.2418C25.1946 21.1748 25.3426 21.0741 25.4676 20.9455C25.5926 20.817 25.6919 20.6633 25.7597 20.4935C25.8275 20.3237 25.8625 20.1413 25.8625 19.9569C25.8625 19.7726 25.8275 19.5902 25.7597 19.4204C25.6919 19.2506 25.5926 19.0969 25.4676 18.9683C25.3426 18.8398 25.1946 18.7391 25.0322 18.6721C24.8698 18.6051 24.6963 18.5733 24.5221 18.5784C24.1762 18.5784 23.8445 18.7237 23.5999 18.9823C23.3553 19.2409 23.2179 19.5917 23.2179 19.9575C23.2179 20.3232 23.3553 20.674 23.5999 20.9326C23.8445 21.1913 24.1762 21.3355 24.5221 21.3355ZM11.4779 21.3355C11.6522 21.3406 11.8256 21.3087 11.988 21.2418C12.1504 21.1748 12.2985 21.0741 12.4234 20.9455C12.5484 20.817 12.6477 20.6633 12.7155 20.4935C12.7834 20.3237 12.8183 20.1413 12.8183 19.9569C12.8183 19.7726 12.7834 19.5902 12.7155 19.4204C12.6477 19.2506 12.5484 19.0969 12.4234 18.9683C12.2985 18.8398 12.1504 18.7391 11.988 18.6721C11.8256 18.6051 11.6522 18.5733 11.4779 18.5784C11.132 18.5784 10.8003 18.7237 10.5557 18.9823C10.3111 19.2409 10.1737 19.5917 10.1737 19.9575C10.1737 20.3232 10.3111 20.674 10.5557 20.9326C10.8003 21.1913 11.132 21.3355 11.4779 21.3355ZM13.2169 16.7385C13.3745 15.7512 13.247 16.5591 13.8434 12.7573C13.911 12.3278 14.1207 11.9376 14.4352 11.6564C14.7497 11.3752 15.1484 11.2213 15.5602 11.2222H20.4398C21.2912 11.2222 22.0171 11.8698 22.1566 12.7573L22.7821 16.7385H13.2169Z" fill="#6BAFFF"/>
</g>
<defs>
<clipPath id="clip0_612_2620">
<rect width="36" height="36" fill="white"/>
</clipPath>
</defs>
</svg>
