<svg width="36" height="36" viewBox="0 0 36 36" fill="none" xmlns="http://www.w3.org/2000/svg">
<path d="M18 36C27.9412 36 36 27.9405 36 18C36 8.0595 27.9412 0 18 0C8.05875 0 0 8.05875 0 18C0 27.9405 8.05875 36 18 36Z" fill="#DEEEFF"/>
<path d="M27.375 17.375V22.375C27.375 22.5408 27.3092 22.6997 27.1919 22.8169C27.0747 22.9342 26.9158 23 26.75 23H24.875C24.875 22.7 24.8031 22.4044 24.6652 22.138C24.5273 21.8716 24.3275 21.6421 24.0826 21.4689C23.8377 21.2957 23.5548 21.1838 23.2576 21.1426C22.9605 21.1014 22.6578 21.132 22.375 21.232C22.0094 21.3613 21.6929 21.6007 21.469 21.9173C21.2451 22.234 21.125 22.6122 21.125 23H16.125C16.125 22.5027 15.9275 22.0258 15.5758 21.6742C15.2242 21.3225 14.7473 21.125 14.25 21.125C13.7527 21.125 13.2758 21.3225 12.9242 21.6742C12.5725 22.0258 12.375 22.5027 12.375 23H10.5C10.3342 23 10.1753 22.9342 10.0581 22.8169C9.94085 22.6997 9.875 22.5408 9.875 22.375V13.625C9.875 13.4592 9.94085 13.3003 10.0581 13.1831C10.1753 13.0658 10.3342 13 10.5 13H22.375V17.375H27.375Z" fill="#8FBFFA"/>
<path d="M27.9555 17.1406L26.8617 14.4062C26.7689 14.1748 26.6086 13.9765 26.4018 13.8372C26.1949 13.6979 25.951 13.624 25.7016 13.625H23V13C23 12.8342 22.9342 12.6753 22.8169 12.5581C22.6997 12.4408 22.5408 12.375 22.375 12.375C22.2092 12.375 22.0503 12.4408 21.9331 12.5581C21.8158 12.6753 21.75 12.8342 21.75 13V20.8367C21.4626 21.0028 21.211 21.2243 21.0098 21.4884C20.8087 21.7524 20.6619 22.0538 20.5781 22.375H16.6719C16.5342 21.8372 16.2214 21.3606 15.7829 21.0202C15.3444 20.6798 14.8051 20.4951 14.25 20.4951C13.6949 20.4951 13.1556 20.6798 12.7171 21.0202C12.2786 21.3606 11.9658 21.8372 11.8281 22.375H10.5V18.625C10.5 18.4592 10.4342 18.3003 10.3169 18.1831C10.1997 18.0658 10.0408 18 9.875 18C9.70924 18 9.55027 18.0658 9.43306 18.1831C9.31585 18.3003 9.25 18.4592 9.25 18.625V22.375C9.25 22.7065 9.3817 23.0245 9.61612 23.2589C9.85054 23.4933 10.1685 23.625 10.5 23.625H11.8281C11.9658 24.1628 12.2786 24.6394 12.7171 24.9798C13.1556 25.3202 13.6949 25.5049 14.25 25.5049C14.8051 25.5049 15.3444 25.3202 15.7829 24.9798C16.2214 24.6394 16.5342 24.1628 16.6719 23.625H20.5781C20.7158 24.1628 21.0286 24.6394 21.4671 24.9798C21.9056 25.3202 22.4449 25.5049 23 25.5049C23.5551 25.5049 24.0944 25.3202 24.5329 24.9798C24.9714 24.6394 25.2842 24.1628 25.4219 23.625H26.75C27.0815 23.625 27.3995 23.4933 27.6339 23.2589C27.8683 23.0245 28 22.7065 28 22.375V17.375C28.0005 17.2947 27.9854 17.2151 27.9555 17.1406ZM25.7016 14.875L26.4516 16.75H23V14.875H25.7016ZM14.25 24.25C14.0028 24.25 13.7611 24.1767 13.5555 24.0393C13.35 23.902 13.1898 23.7068 13.0952 23.4784C13.0005 23.2499 12.9758 22.9986 13.024 22.7561C13.0723 22.5137 13.1913 22.2909 13.3661 22.1161C13.5409 21.9413 13.7637 21.8222 14.0061 21.774C14.2486 21.7258 14.4999 21.7505 14.7284 21.8451C14.9568 21.9398 15.152 22.1 15.2893 22.3055C15.4267 22.5111 15.5 22.7528 15.5 23C15.5 23.3315 15.3683 23.6495 15.1339 23.8839C14.8995 24.1183 14.5815 24.25 14.25 24.25ZM23 24.25C22.7528 24.25 22.5111 24.1767 22.3055 24.0393C22.1 23.902 21.9398 23.7068 21.8452 23.4784C21.7505 23.2499 21.7258 22.9986 21.774 22.7561C21.8223 22.5137 21.9413 22.2909 22.1161 22.1161C22.2909 21.9413 22.5137 21.8222 22.7561 21.774C22.9986 21.7258 23.2499 21.7505 23.4784 21.8451C23.7068 21.9398 23.902 22.1 24.0393 22.3055C24.1767 22.5111 24.25 22.7528 24.25 23C24.25 23.3315 24.1183 23.6495 23.8839 23.8839C23.6495 24.1183 23.3315 24.25 23 24.25ZM25.4219 22.375C25.2825 21.8385 24.9692 21.3635 24.5309 21.0242C24.0927 20.6849 23.5543 20.5005 23 20.5V18H26.75V22.375H25.4219ZM9.875 15.5C9.70924 15.5 9.55027 15.5658 9.43306 15.6831C9.31585 15.8003 9.25 15.9592 9.25 16.125C9.25 16.2908 9.31585 16.4497 9.43306 16.5669C9.55027 16.6842 9.70924 16.75 9.875 16.75H19.875C20.0408 16.75 20.1997 16.6842 20.3169 16.5669C20.4342 16.4497 20.5 16.2908 20.5 16.125C20.5 15.9592 20.4342 15.8003 20.3169 15.6831C20.1997 15.5658 20.0408 15.5 19.875 15.5H18.625V13.625H19.875C20.0408 13.625 20.1997 13.5592 20.3169 13.4419C20.4342 13.3247 20.5 13.1658 20.5 13C20.5 12.8342 20.4342 12.6753 20.3169 12.5581C20.1997 12.4408 20.0408 12.375 19.875 12.375H9.875C9.70924 12.375 9.55027 12.4408 9.43306 12.5581C9.31585 12.6753 9.25 12.8342 9.25 13C9.25 13.1658 9.31585 13.3247 9.43306 13.4419C9.55027 13.5592 9.70924 13.625 9.875 13.625H11.125V15.5H9.875ZM17.375 15.5H15.5V13.625H17.375V15.5ZM12.375 13.625H14.25V15.5H12.375V13.625Z" fill="#2859C5"/>
</svg>
