<svg width="26" height="30" viewBox="0 0 26 30" fill="none" xmlns="http://www.w3.org/2000/svg">
<path d="M4.1995 28.5C2.4325 28.5 1 27.03 1 25.215V12.012C1 11.0145 1.4425 10.0695 2.2 9.447L11.0005 2.22C11.5628 1.75438 12.2699 1.49959 13 1.49959C13.7301 1.49959 14.4372 1.75438 14.9995 2.22L23.7985 9.447C24.5575 10.0695 25 11.0145 25 12.012V25.215C25 27.03 23.5675 28.5 21.8005 28.5H4.1995Z" stroke="#4489D3" stroke-width="1.5" stroke-linecap="round" stroke-linejoin="round"/>
<path d="M9.25 28.5V20.25C9.25 19.4544 9.56607 18.6913 10.1287 18.1287C10.6913 17.5661 11.4544 17.25 12.25 17.25H13.75C14.5456 17.25 15.3087 17.5661 15.8713 18.1287C16.4339 18.6913 16.75 19.4544 16.75 20.25V28.5" stroke="#4489D3" stroke-width="1.5" stroke-linecap="round" stroke-linejoin="round"/>
</svg>
