<svg width="36" height="36" viewBox="0 0 36 36" fill="none" xmlns="http://www.w3.org/2000/svg">
<g clip-path="url(#clip0_612_2607)">
<path d="M18 36C27.9412 36 36 27.9412 36 18C36 8.0595 27.9412 0 18 0C8.05875 0 0 8.0595 0 18C0 27.9405 8.05875 36 18 36Z" fill="#DEEEFF"/>
<path d="M18.9989 13.92C19.7166 13.245 21.2661 12.147 23.7591 12.147C27.3591 12.147 27.6861 13.7835 27.6861 13.7835C23.4651 13.7835 21.4686 14.6167 20.0271 15.516C20.1794 15.3547 19.7796 14.6235 18.9989 13.92ZM11.6991 18.6922L10.6941 22.1077C10.6451 22.2743 10.6642 22.4536 10.7474 22.606C10.8305 22.7585 10.9708 22.8717 11.1374 22.9207C11.304 22.9698 11.4832 22.9506 11.6357 22.8675C11.7881 22.7843 11.9013 22.6441 11.9504 22.4775L13.0634 18.693L11.6991 18.6922Z" fill="#2E3ECD"/>
<path d="M11.3225 19.0199C10.8886 19.0133 10.4577 19.0931 10.0549 19.2546C9.65208 19.4162 9.28541 19.6562 8.97622 19.9607C8.66703 20.2653 8.4215 20.6283 8.2539 21.0286C8.08631 21.4289 8 21.8585 8 22.2925C8 22.7265 8.08631 23.1562 8.2539 23.5565C8.4215 23.9568 8.66703 24.3198 8.97622 24.6243C9.28541 24.9289 9.65208 25.1689 10.0549 25.3304C10.4577 25.4919 10.8886 25.5717 11.3225 25.5652C12.1819 25.5521 13.0017 25.2016 13.6048 24.5893C14.2079 23.977 14.546 23.152 14.546 22.2925C14.546 21.4331 14.2079 20.6081 13.6048 19.9958C13.0017 19.3834 12.1819 19.0329 11.3225 19.0199ZM11.3225 24.2564C10.8017 24.2564 10.3022 24.0495 9.93387 23.6812C9.56558 23.3129 9.35867 22.8134 9.35867 22.2925C9.35867 21.7717 9.56558 21.2722 9.93387 20.9039C10.3022 20.5356 10.8017 20.3287 11.3225 20.3287C11.8434 20.3287 12.3429 20.5356 12.7112 20.9039C13.0795 21.2722 13.2864 21.7717 13.2864 22.2925C13.2864 22.8134 13.0795 23.3129 12.7112 23.6812C12.3429 24.0495 11.8434 24.2564 11.3225 24.2564Z" fill="#2E3ECD"/>
<path fill-rule="evenodd" clip-rule="evenodd" d="M19.8298 14.8686C20.0338 15.1851 20.1073 15.4311 20.0271 15.5159C21.4678 14.6166 23.4651 13.7834 27.6861 13.7834C27.6861 13.7834 27.6253 13.4781 27.2661 13.1309C23.3533 13.1834 21.3231 13.9664 19.8306 14.8694" fill="#6BAFFF"/>
<path d="M8.04956 16.4009L15.3921 22.7856C15.5111 22.8896 15.6638 22.9469 15.8218 22.9469H20.5093C20.6751 22.9472 20.8348 22.8845 20.956 22.7714C21.0772 22.6583 21.1508 22.5033 21.1618 22.3379C21.4146 18.7281 23.9241 16.1091 27.6861 13.7834C23.4651 13.7834 21.4678 14.6159 20.0271 15.5159C20.3361 15.1881 18.3726 12.4949 15.5158 12.4949C14.5033 12.4949 13.4923 12.9839 12.6313 13.5839V10.6559C12.6319 10.5476 12.6055 10.4409 12.5545 10.3453C12.5035 10.2498 12.4296 10.1684 12.3393 10.1086C12.2491 10.0488 12.1453 10.0124 12.0375 10.0026C11.9296 9.99291 11.8211 10.0102 11.7216 10.0529C10.5741 10.5396 9.50456 11.8671 8.82206 13.3379C8.34131 14.3654 8.04956 15.4679 8.04956 16.4009Z" fill="#2E3ECD"/>
<path d="M25.7226 19.0199C25.2886 19.0133 24.8577 19.0931 24.4549 19.2546C24.0521 19.4162 23.6854 19.6562 23.3762 19.9607C23.0671 20.2653 22.8215 20.6283 22.6539 21.0286C22.4863 21.4289 22.4 21.8585 22.4 22.2925C22.4 22.7265 22.4863 23.1562 22.6539 23.5565C22.8215 23.9568 23.0671 24.3198 23.3762 24.6243C23.6854 24.9289 24.0521 25.1689 24.4549 25.3304C24.8577 25.4919 25.2886 25.5717 25.7226 25.5652C26.5819 25.5521 27.4017 25.2016 28.0048 24.5893C28.608 23.977 28.946 23.152 28.946 22.2925C28.946 21.4331 28.608 20.6081 28.0048 19.9958C27.4017 19.3834 26.5819 19.0329 25.7226 19.0199ZM25.7226 24.2564C25.2017 24.2564 24.7022 24.0495 24.3339 23.6812C23.9656 23.3129 23.7587 22.8134 23.7587 22.2925C23.7587 21.7717 23.9656 21.2722 24.3339 20.9039C24.7022 20.5356 25.2017 20.3287 25.7226 20.3287C26.2434 20.3287 26.7429 20.5356 27.1112 20.9039C27.4795 21.2722 27.6864 21.7717 27.6864 22.2925C27.6864 22.8134 27.4795 23.3129 27.1112 23.6812C26.7429 24.0495 26.2434 24.2564 25.7226 24.2564Z" fill="#2E3ECD"/>
<path d="M21.6733 20.0371L21.7033 20.0454L25.9573 21.6819C26.0402 21.7107 26.1163 21.756 26.1813 21.8149C26.2463 21.8737 26.2989 21.9451 26.3358 22.0247C26.3726 22.1042 26.3932 22.1904 26.3961 22.2781C26.3991 22.3657 26.3844 22.4531 26.3529 22.535C26.3215 22.6168 26.2739 22.6916 26.213 22.7547C26.1521 22.8178 26.0791 22.8681 25.9984 22.9024C25.9177 22.9368 25.831 22.9546 25.7433 22.9548C25.6555 22.955 25.5687 22.9376 25.4878 22.9036L21.3088 21.2964C21.3953 20.8664 21.5168 20.4466 21.6733 20.0371Z" fill="#2E3ECD"/>
<path d="M8.04956 16.4015C8.04956 16.4015 9.42431 16.205 10.6678 15.704C11.5551 15.3492 12.6313 14.7342 12.6313 13.7832C12.1536 13.4232 11.4141 13.286 10.6678 13.253C9.99656 13.22 9.31631 13.2755 8.82206 13.3385C8.34131 14.366 8.04956 15.4685 8.04956 16.4015Z" fill="#6BAFFF"/>
<path fill-rule="evenodd" clip-rule="evenodd" d="M8.04956 16.4017C8.04956 16.4017 8.30981 16.3642 8.70581 16.2817C9.22031 16.1729 9.96581 15.9877 10.6678 15.7042C11.5551 15.3494 12.6313 14.7344 12.6313 13.7834C12.1536 13.4234 11.4141 13.2862 10.6678 13.2532C9.99656 13.2209 9.31631 13.2757 8.82206 13.3387C8.71656 13.5637 8.62031 13.7927 8.53331 14.0257C9.07256 13.9777 10.2171 13.8862 10.6363 13.9072H10.6393C11.1366 13.9297 11.5603 13.9994 11.8768 14.1172C11.7922 14.2494 11.6862 14.3668 11.5633 14.4644C11.2603 14.7172 10.8426 14.9294 10.4248 15.0967L10.4233 15.0974C9.90956 15.3044 8.67581 15.5864 8.09681 15.7177C8.06681 15.9447 8.05106 16.1727 8.04956 16.4017Z" fill="#2E3ECD"/>
<path d="M12.6322 13.7836V13.5841C13.4925 12.9841 14.5042 12.4951 15.516 12.4951C18.3735 12.4951 20.3362 15.1876 20.0272 15.5154C18.3412 16.5691 17.4195 17.7114 14.5957 17.7114C11.6497 17.7114 10.668 16.5414 10.668 15.7479V15.7051C11.556 15.3504 12.6322 14.7346 12.6322 13.7836Z" fill="#6BAFFF"/>
</g>
<defs>
<clipPath id="clip0_612_2607">
<rect width="36" height="36" fill="white"/>
</clipPath>
</defs>
</svg>
