<svg width="53" height="53" viewBox="0 0 53 53" fill="none" xmlns="http://www.w3.org/2000/svg">
<path d="M26.5 37.5417C27.1257 37.5417 27.6505 37.3297 28.0745 36.9057C28.4985 36.4817 28.7098 35.9576 28.7083 35.3333C28.7069 34.7091 28.4949 34.185 28.0723 33.761C27.6498 33.337 27.1257 33.125 26.5 33.125C25.8743 33.125 25.3502 33.337 24.9277 33.761C24.5051 34.185 24.2931 34.7091 24.2917 35.3333C24.2902 35.9576 24.5022 36.4824 24.9277 36.9079C25.3531 37.3333 25.8772 37.5446 26.5 37.5417ZM26.5 28.7083C27.1257 28.7083 27.6505 28.4963 28.0745 28.0723C28.4985 27.6483 28.7098 27.1242 28.7083 26.5V17.6667C28.7083 17.041 28.4963 16.5169 28.0723 16.0943C27.6483 15.6718 27.1242 15.4598 26.5 15.4583C25.8758 15.4569 25.3517 15.6689 24.9277 16.0943C24.5037 16.5198 24.2917 17.0439 24.2917 17.6667V26.5C24.2917 27.1257 24.5037 27.6505 24.9277 28.0745C25.3517 28.4985 25.8758 28.7098 26.5 28.7083ZM20.0406 46.375C19.4517 46.375 18.8908 46.2646 18.3579 46.0438C17.8249 45.8229 17.3553 45.5101 16.949 45.1052L7.89479 36.051C7.48993 35.6462 7.17708 35.1765 6.95625 34.6421C6.73542 34.1077 6.625 33.5475 6.625 32.9616V20.0428C6.625 19.4539 6.73542 18.893 6.95625 18.3601C7.17708 17.8271 7.48993 17.3575 7.89479 16.9512L16.949 7.897C17.3538 7.49214 17.8235 7.17929 18.3579 6.95846C18.8923 6.73763 19.4532 6.62647 20.0406 6.625H32.9594C33.5483 6.625 34.1099 6.73542 34.6443 6.95625C35.1787 7.17708 35.6477 7.48993 36.051 7.89479L45.1052 16.949C45.5101 17.3538 45.8229 17.8235 46.0438 18.3579C46.2646 18.8923 46.375 19.4532 46.375 20.0406V32.9594C46.375 33.5483 46.2646 34.1099 46.0438 34.6443C45.8229 35.1787 45.5101 35.6477 45.1052 36.051L36.051 45.1052C35.6462 45.5101 35.1765 45.8229 34.6421 46.0438C34.1077 46.2646 33.5468 46.375 32.9594 46.375H20.0406Z" fill="#4389D3"/>
</svg>
