<svg width="145" height="145" viewBox="0 0 145 145" fill="none" xmlns="http://www.w3.org/2000/svg">
<path fill-rule="evenodd" clip-rule="evenodd" d="M72.5 12.0833V51.3541C72.5 53.7576 73.4548 56.0627 75.1543 57.7622C76.8539 59.4618 79.1589 60.4166 81.5625 60.4166H120.833V120.833C120.833 124.038 119.56 127.111 117.294 129.377C115.028 131.644 111.955 132.917 108.75 132.917H36.25C33.0453 132.917 29.9718 131.644 27.7058 129.377C25.4397 127.111 24.1666 124.038 24.1666 120.833V24.1666C24.1666 20.9619 25.4397 17.8884 27.7058 15.6224C29.9718 13.3563 33.0453 12.0833 36.25 12.0833H72.5ZM66.5247 71.5816C65.0785 80.7834 60.2664 89.1201 53.0216 94.9749C47.6627 99.3008 52.5625 107.789 58.9908 105.318C67.6837 101.97 77.3102 101.97 86.0031 105.318C92.4314 107.795 97.3312 99.3068 91.9722 94.9749C84.7275 89.1201 79.9154 80.7834 78.4691 71.5816C77.3997 64.7787 67.5941 64.7726 66.5247 71.5816ZM72.5 86.4139L77.3695 94.836H67.6425L72.5 86.4139ZM84.5833 12.343C86.8723 12.8285 88.9712 13.9682 90.625 15.6237L117.293 42.2916C118.948 43.9453 120.088 46.0442 120.574 48.3333H84.5833V12.343Z" fill="#4389D3" fill-opacity="0.2"/>
</svg>
