<svg width="24" height="24" viewBox="0 0 24 24" fill="none" xmlns="http://www.w3.org/2000/svg">
<path d="M20.4 7.34999V10.842C20.2013 10.8137 20.0007 10.7996 19.8 10.8H19.2V7.34999C19.2033 7.19167 19.1742 7.03434 19.1146 6.88764C19.0549 6.74093 18.966 6.60794 18.8532 6.49679L16.3032 3.94679C16.1151 3.75606 15.8665 3.63682 15.6 3.60959V6.59999C15.5982 6.95453 15.4924 7.30073 15.2957 7.59573C15.099 7.89072 14.8201 8.12154 14.4936 8.25959C14.2762 8.35891 14.0389 8.40694 13.8 8.39999H8.99999C8.64546 8.39816 8.29925 8.29236 8.00426 8.09569C7.70927 7.89903 7.47845 7.62015 7.34039 7.29359C7.24108 7.0762 7.19304 6.8389 7.19999 6.59999V3.59999H5.99999C5.84327 3.59803 5.68777 3.62773 5.54281 3.68732C5.39785 3.74692 5.26642 3.83517 5.15639 3.94679C5.04674 4.05822 4.95776 4.18824 4.89359 4.33079C4.82607 4.4777 4.79401 4.63842 4.79999 4.79999V16.8C4.79938 16.9611 4.83121 17.1207 4.89359 17.2692C4.95679 17.4116 5.04119 17.5396 5.14679 17.6532C5.25143 17.7647 5.3798 17.8512 5.52239 17.9064C5.67599 17.9648 5.83519 17.996 5.99999 18V12.6C6.00183 12.2455 6.10763 11.8993 6.30429 11.6043C6.50096 11.3093 6.77984 11.0784 7.10639 10.9404C7.32359 10.842 7.56119 10.794 7.79999 10.8H14.9904C13.8944 10.8023 12.8428 11.233 12.06 12H7.79999C7.64135 12.0016 7.48964 12.0653 7.37746 12.1775C7.26527 12.2896 7.20156 12.4413 7.19999 12.6V18H10.8V19.2H5.99999C5.68716 19.2007 5.37754 19.1369 5.09039 19.0128C4.80673 18.8902 4.54678 18.7188 4.32239 18.5064C4.09506 18.2937 3.91369 18.0368 3.78945 17.7513C3.66521 17.4659 3.60073 17.1581 3.59999 16.8468V4.79999C3.59879 4.48799 3.66239 4.17719 3.78719 3.89039C3.9095 3.60588 4.08091 3.3451 4.29359 3.11999C4.50464 2.89713 4.75851 2.71918 5.03999 2.59679C5.32799 2.47079 5.63879 2.40479 5.95319 2.39999H15.45C15.7644 2.39999 16.0776 2.45999 16.3692 2.57759C16.662 2.69639 16.9272 2.87519 17.1468 3.10319L19.6968 5.65319C19.92 5.87519 20.0952 6.13919 20.2128 6.43079C20.3316 6.72359 20.3952 7.03439 20.4 7.34999ZM8.39999 3.59999V6.59999C8.40156 6.75864 8.46527 6.91034 8.57746 7.02253C8.68964 7.13471 8.84135 7.19843 8.99999 7.19999H13.8C13.9586 7.19843 14.1103 7.13471 14.2225 7.02253C14.3347 6.91034 14.3984 6.75864 14.4 6.59999V3.59999H8.39999ZM12 15C12 14.2043 12.3161 13.4413 12.8787 12.8787C13.4413 12.3161 14.2043 12 15 12H19.8C20.5956 12 21.3587 12.3161 21.9213 12.8787C22.4839 13.4413 22.8 14.2043 22.8 15V19.8C22.8 20.412 22.6176 20.9796 22.3032 21.4548L18.6732 17.8248C18.506 17.6575 18.3076 17.5248 18.0891 17.4343C17.8706 17.3438 17.6365 17.2972 17.4 17.2972C17.1635 17.2972 16.9294 17.3438 16.7109 17.4343C16.4924 17.5248 16.294 17.6575 16.1268 17.8248L12.4968 21.4548C12.1725 20.9638 11.9997 20.3884 12 19.8V15ZM20.4 15.3C20.4 15.0613 20.3052 14.8324 20.1364 14.6636C19.9676 14.4948 19.7387 14.4 19.5 14.4C19.2613 14.4 19.0324 14.4948 18.8636 14.6636C18.6948 14.8324 18.6 15.0613 18.6 15.3C18.6 15.5387 18.6948 15.7676 18.8636 15.9364C19.0324 16.1052 19.2613 16.2 19.5 16.2C19.7387 16.2 19.9676 16.1052 20.1364 15.9364C20.3052 15.7676 20.4 15.5387 20.4 15.3ZM13.3452 22.3032C13.8204 22.6176 14.3892 22.8 15 22.8H19.8C20.412 22.8 20.9796 22.6176 21.4548 22.3032L17.8248 18.6732C17.7691 18.6173 17.7028 18.573 17.63 18.5427C17.5571 18.5125 17.4789 18.4969 17.4 18.4969C17.3211 18.4969 17.2429 18.5125 17.17 18.5427C17.0971 18.573 17.0309 18.6173 16.9752 18.6732L13.3452 22.3032Z" fill="#75B5FB"/>
</svg>
