<svg width="36" height="36" viewBox="0 0 36 36" fill="none" xmlns="http://www.w3.org/2000/svg">
<path d="M17.9993 35.9971C27.9405 35.9971 35.9993 27.9383 35.9993 17.9971C35.9993 8.05582 27.9405 -0.00292969 17.9993 -0.00292969C8.05802 -0.00292969 -0.000732422 8.05582 -0.000732422 17.9971C-0.000732422 27.9383 8.05802 35.9971 17.9993 35.9971Z" fill="#DEEEFF"/>
<path d="M14.0722 21.9243V16.0646C14.0722 15.8838 13.9252 15.7061 13.7445 15.7061H12.117C11.343 15.7061 10.668 16.2641 10.4797 17.0148L9.48974 19.3061C9.48974 19.3061 8.18099 20.4236 8.18099 21.0198V23.8878H27.8175V21.9243H14.0722ZM27.8175 24.2156C27.8173 24.476 27.7137 24.7257 27.5295 24.9098C27.3452 25.0939 27.0954 25.1973 26.835 25.1973H8.18099C8.00744 25.1973 7.84099 25.1284 7.71827 25.0056C7.59555 24.8829 7.52661 24.7165 7.52661 24.5429C7.52661 24.3694 7.59555 24.2029 7.71827 24.0802C7.84099 23.9575 8.00744 23.8878 8.18099 23.8878H27.8175V24.2156Z" fill="#2E3ECD"/>
<path d="M9.49041 23.8873H8.18091V21.9238H8.83566C9.00931 21.9238 9.17585 21.9928 9.29864 22.1156C9.42143 22.2384 9.49041 22.4049 9.49041 22.5786V23.8873ZM24.8714 27.1603C25.4791 27.1603 26.0619 26.9189 26.4916 26.4892C26.9213 26.0595 27.1627 25.4768 27.1627 24.8691C27.1627 24.2614 26.9213 23.6786 26.4916 23.2489C26.0619 22.8192 25.4791 22.5778 24.8714 22.5778C24.2637 22.5778 23.6809 22.8192 23.2512 23.2489C22.8216 23.6786 22.5802 24.2614 22.5802 24.8691C22.5802 25.4768 22.8216 26.0595 23.2512 26.4892C23.6809 26.9189 24.2637 27.1603 24.8714 27.1603Z" fill="#6BAFFF"/>
<path d="M24.8715 25.7858C24.994 25.7893 25.116 25.7682 25.2302 25.7237C25.3444 25.6792 25.4485 25.6123 25.5364 25.5269C25.6243 25.4415 25.6942 25.3393 25.7419 25.2264C25.7896 25.1135 25.8142 24.9922 25.8142 24.8696C25.8142 24.7471 25.7896 24.6257 25.7419 24.5129C25.6942 24.4 25.6243 24.2978 25.5364 24.2124C25.4485 24.1269 25.3444 24.06 25.2302 24.0156C25.116 23.9711 24.994 23.95 24.8715 23.9535C24.6331 23.9603 24.4067 24.0598 24.2404 24.2309C24.0742 24.402 23.9812 24.6311 23.9812 24.8696C23.9812 25.1082 24.0742 25.3373 24.2404 25.5084C24.4067 25.6794 24.6331 25.7789 24.8715 25.7858Z" fill="#2E3ECD"/>
<path d="M25.854 19.3059L24.5445 20.6154L23.2357 19.3059L21.9262 20.6154L20.6175 19.3059L19.308 20.6154L18 19.3052L16.6912 20.6147L15.3817 19.3052L14.073 20.6147V21.9234H28.473V19.3059L27.1635 20.6147L25.854 19.3059Z" fill="#6BAFFF"/>
<path d="M14.7263 11.1248H27.8175C27.991 11.1248 28.1575 11.1937 28.2802 11.3163C28.403 11.4389 28.4721 11.6053 28.4723 11.7788V19.3065L27.1628 20.6153L25.854 19.3065L24.5445 20.6153L23.2358 19.3065L21.9263 20.6153L20.6175 19.3065L19.3088 20.6153L17.9993 19.3065L16.6905 20.6153L15.381 19.3065L14.0723 20.6153V11.7788C14.0723 11.6053 14.1411 11.4388 14.2638 11.3161C14.3864 11.1933 14.5527 11.1242 14.7263 11.124" fill="#2E3ECD"/>
<path d="M11.4534 27.1606C12.061 27.1606 12.6438 26.9192 13.0735 26.4895C13.5032 26.0598 13.7446 25.4771 13.7446 24.8694C13.7446 24.2617 13.5032 23.6789 13.0735 23.2492C12.6438 22.8195 12.061 22.5781 11.4534 22.5781C10.8457 22.5781 10.2629 22.8195 9.8332 23.2492C9.40351 23.6789 9.16211 24.2617 9.16211 24.8694C9.16211 25.4771 9.40351 26.0598 9.8332 26.4895C10.2629 26.9192 10.8457 27.1606 11.4534 27.1606Z" fill="#6BAFFF"/>
<path d="M11.4541 25.7856C11.6972 25.7856 11.9303 25.6891 12.1022 25.5172C12.274 25.3453 12.3706 25.1122 12.3706 24.8691C12.3706 24.6261 12.274 24.3929 12.1022 24.2211C11.9303 24.0492 11.6972 23.9526 11.4541 23.9526C11.211 23.9526 10.9779 24.0492 10.806 24.2211C10.6342 24.3929 10.5376 24.6261 10.5376 24.8691C10.5376 25.1122 10.6342 25.3453 10.806 25.5172C10.9779 25.6891 11.211 25.7856 11.4541 25.7856Z" fill="#2E3ECD"/>
<path d="M10.1445 19.3056H13.4175V16.3604H11.9475C11.454 16.3604 11.2065 16.7339 11.127 17.0151L10.1445 19.3056Z" fill="#6BAFFF"/>
</svg>
