<svg width="36" height="36" viewBox="0 0 36 36" fill="none" xmlns="http://www.w3.org/2000/svg">
<path d="M18 36C27.9413 36 36 27.9405 36 18C36 8.0595 27.9413 0 18 0C8.05875 0 0 8.05875 0 18C0 27.9405 8.05875 36 18 36Z" fill="#DEEEFF"/>
<path fill-rule="evenodd" clip-rule="evenodd" d="M10.4314 11.7202C9.86311 11.7202 9.31807 11.946 8.9162 12.3478C8.51434 12.7497 8.28857 13.2948 8.28857 13.8631V23.3288C8.28857 23.8971 8.51434 24.4422 8.9162 24.844C9.31807 25.2459 9.86311 25.4716 10.4314 25.4716H25.5657C26.134 25.4716 26.6791 25.2459 27.0809 24.844C27.4828 24.4422 27.7086 23.8971 27.7086 23.3288V18.7745C27.709 18.6657 27.6846 18.5582 27.6371 18.4602L25.6471 14.3888C25.4711 14.028 25.1972 13.724 24.8567 13.5113C24.5162 13.2987 24.1229 13.1859 23.7214 13.1859H21.6886C21.5465 12.7594 21.2739 12.3884 20.9093 12.1253C20.5448 11.8623 20.1067 11.7206 19.6571 11.7202H10.4314Z" fill="#8FBFFA"/>
<path fill-rule="evenodd" clip-rule="evenodd" d="M27.7087 19.6285H22.5344C22.309 19.6285 22.0928 19.539 21.9334 19.3796C21.7739 19.2202 21.6844 19.004 21.6844 18.7785V13.1714L21.6887 13.1857H23.7215C24.123 13.1857 24.5163 13.2984 24.8568 13.5111C25.1973 13.7238 25.4712 14.0278 25.6472 14.3885L27.6372 18.46C27.6847 18.5579 27.7091 18.6654 27.7087 18.7742V19.6285ZM13.5687 22.5828C12.8503 22.5828 12.1614 22.8682 11.6534 23.3761C11.1455 23.8841 10.8601 24.573 10.8601 25.2914C10.8601 26.0097 11.1455 26.6987 11.6534 27.2066C12.1614 27.7146 12.8503 28 13.5687 28C14.287 28 14.976 27.7146 15.4839 27.2066C15.9919 26.6987 16.2772 26.0097 16.2772 25.2914C16.2772 24.573 15.9919 23.8841 15.4839 23.3761C14.976 22.8682 14.287 22.5828 13.5687 22.5828ZM19.9115 25.2914C19.9115 24.5728 20.197 23.8837 20.7051 23.3756C21.2132 22.8675 21.9023 22.5821 22.6208 22.5821C23.3394 22.5821 24.0285 22.8675 24.5366 23.3756C25.0447 23.8837 25.3301 24.5728 25.3301 25.2914C25.3301 26.0097 25.0447 26.6987 24.5368 27.2066C24.0288 27.7146 23.3399 28 22.6215 28C21.9032 28 21.2142 27.7146 20.7063 27.2066C20.1983 26.6987 19.9115 26.0097 19.9115 25.2914Z" fill="#2859C5"/>
</svg>
