<svg width="21" height="21" viewBox="0 0 21 21" fill="none" xmlns="http://www.w3.org/2000/svg">
<path fill-rule="evenodd" clip-rule="evenodd" d="M10.0573 18.8577C10.224 18.8577 10.3839 18.7915 10.5018 18.6736C10.6197 18.5557 10.6859 18.3958 10.6859 18.2291V3.40318L14.641 7.35953C14.759 7.47756 14.9191 7.54387 15.086 7.54387C15.2529 7.54387 15.413 7.47756 15.5311 7.35953C15.6491 7.2415 15.7154 7.08141 15.7154 6.91449C15.7154 6.74756 15.6491 6.58748 15.5311 6.46945L10.5023 1.44071C10.4439 1.38218 10.3746 1.33573 10.2982 1.30404C10.2218 1.27235 10.14 1.25604 10.0573 1.25604C9.9746 1.25604 9.89274 1.27235 9.81637 1.30404C9.74 1.33573 9.67063 1.38218 9.61224 1.44071L4.58351 6.46945C4.52507 6.52789 4.47871 6.59727 4.44708 6.67363C4.41545 6.74999 4.39917 6.83184 4.39917 6.91449C4.39917 7.08141 4.46548 7.2415 4.58351 7.35953C4.70155 7.47756 4.86163 7.54387 5.02856 7.54387C5.19548 7.54387 5.35557 7.47756 5.4736 7.35953L9.42869 3.40318V18.2291C9.42869 18.3958 9.49492 18.5557 9.61281 18.6736C9.73069 18.7915 9.89057 18.8577 10.0573 18.8577Z" fill="white"/>
</svg>
